<?xml version="1.0" encoding="utf-8"?>
<!-- Generator: Adobe Illustrator 21.0.2, SVG Export Plug-In . SVG Version: 6.00 Build 0)  -->
<svg version="1.1" id="Layer_1" xmlns="http://www.w3.org/2000/svg" xmlns:xlink="http://www.w3.org/1999/xlink" x="0px" y="0px"
	 viewBox="0 0 612 792" style="enable-background:new 0 0 612 792;" xml:space="preserve">
<style type="text/css">
	.st0{fill:#010101;}
</style>
<g>
	<g>
		<path class="st0" d="M344.2,370.4h-18.7v-12.4c0-3.9-3.2-7.1-7.1-7.1h-33.6c-3.9,0-7.1,3.2-7.1,7.1v34.8c0,0.8,0.4,1.6,1.2,2
			c0.3,0.2,0.7,0.3,1.1,0.3c0.4,0,0.8-0.1,1.2-0.3l8.1-5.1h14.3V402c0,3.9,3.2,7.1,7.1,7.1l29.1,0l8.2,5.1c0.4,0.2,0.8,0.3,1.2,0.3
			c0.4,0,0.8-0.1,1.1-0.3c0.7-0.4,1.2-1.2,1.2-2v-34.8C351.3,373.6,348.1,370.4,344.2,370.4z M303.5,377.6v9h-14.3
			c-0.6,0-1.1,0.2-1.6,0.5l-7,4.4v-33.4c0-2.3,1.9-4.1,4.1-4.1h33.6c2.3,0,4.1,1.9,4.1,4.1v12.4h-11.9
			C306.7,370.4,303.5,373.6,303.5,377.6z M322.5,373.4v9c0,2.3-1.9,4.1-4.1,4.1h-11.9v-9c0-2.3,1.9-4.1,4.1-4.1H322.5z M348.3,411
			l-7-4.4c-0.5-0.3-1-0.5-1.6-0.5h-29.1c-2.3,0-4.1-1.9-4.1-4.1v-12.4h11.9c3.9,0,7.1-3.2,7.1-7.1v-9h18.7c2.3,0,4.1,1.9,4.1,4.1
			L348.3,411L348.3,411z"/>
		<path class="st0" d="M308.3,418.6h-1.7c-0.3,0-0.6,0.1-0.9,0.1v-7.5h-18.2v-3.5c1.8-0.6,3-2.2,3-4.1c0-2.4-1.9-4.3-4.3-4.3
			s-4.3,1.9-4.3,4.3c0,1.9,1.3,3.6,3,4.1v3.5h-18.2v7.5c-0.3-0.1-0.6-0.1-0.9-0.1h-1.7c-1.9,0-3.4,1.5-3.4,3.4v8.3
			c0,1.9,1.5,3.4,3.4,3.4h1.7c0.3,0,0.6-0.1,0.9-0.1v7.5h39v-7.5c0.3,0.1,0.6,0.1,0.9,0.1h1.7c1.9,0,3.4-1.5,3.4-3.4V422
			C311.8,420.1,310.2,418.6,308.3,418.6z M266.6,430.3c0,0.5-0.4,0.8-0.8,0.8h-1.7c-0.5,0-0.8-0.4-0.8-0.8V422
			c0-0.5,0.4-0.8,0.8-0.8h1.7c0.5,0,0.8,0.4,0.8,0.8V430.3z M303.1,438.5H276v-24.7h27.1C303.1,413.8,303.1,438.5,303.1,438.5z
			 M309.2,430.3c0,0.5-0.4,0.8-0.8,0.8h-1.7c-0.5,0-0.8-0.4-0.8-0.8V422c0-0.5,0.4-0.8,0.8-0.8h1.7c0.5,0,0.8,0.4,0.8,0.8V430.3z"/>
		<circle class="st0" cx="282.9" cy="423.4" r="3"/>
		<path class="st0" d="M298.2,426.3c1.6,0,3-1.3,3-3s-1.3-3-3-3c-1.6,0-3,1.3-3,3S296.6,426.3,298.2,426.3z"/>
		<path class="st0" d="M290.5,434c3.6,0,6.6-2.7,6.9-6.3h-13.9C284,431.3,286.9,434,290.5,434z"/>
	</g>
</g>
</svg>
